<svg xmlns="http://www.w3.org/2000/svg" viewBox="0 0 1200 630" width="1200" height="630">
  <defs>
    <linearGradient id="bg" x1="0%" y1="0%" x2="100%" y2="100%">
      <stop offset="0%" style="stop-color:#0f172a"/>
      <stop offset="100%" style="stop-color:#1e1b4b"/>
    </linearGradient>
    <linearGradient id="card" x1="0%" y1="0%" x2="100%" y2="100%">
      <stop offset="0%" style="stop-color:#4F46E5"/>
      <stop offset="100%" style="stop-color:#7C3AED"/>
    </linearGradient>
  </defs>
  
  <!-- Background -->
  <rect width="1200" height="630" fill="url(#bg)"/>
  
  <!-- Grid lines subtle -->
  <line x1="0" y1="210" x2="1200" y2="210" stroke="white" stroke-opacity="0.03" stroke-width="1"/>
  <line x1="0" y1="420" x2="1200" y2="420" stroke="white" stroke-opacity="0.03" stroke-width="1"/>
  <line x1="400" y1="0" x2="400" y2="630" stroke="white" stroke-opacity="0.03" stroke-width="1"/>
  <line x1="800" y1="0" x2="800" y2="630" stroke="white" stroke-opacity="0.03" stroke-width="1"/>
  
  <!-- Logo icon -->
  <rect x="80" y="80" width="100" height="100" rx="22" fill="url(#card)"/>
  <rect x="100" y="118" width="60" height="34" rx="4" fill="none" stroke="white" stroke-width="3.5"/>
  <line x1="112" y1="152" x2="112" y2="164" stroke="white" stroke-width="3.5" stroke-linecap="round"/>
  <line x1="148" y1="152" x2="148" y2="164" stroke="white" stroke-width="3.5" stroke-linecap="round"/>
  <polyline points="108,134 116,143 152,122" fill="none" stroke="#FCD34D" stroke-width="4" stroke-linecap="round" stroke-linejoin="round"/>
  <polygon points="130,88 132.5,95.5 140,95.5 134,100 136.5,108 130,103.5 123.5,108 126,100 120,95.5 127.5,95.5" fill="#FCD34D"/>
  
  <!-- Main heading -->
  <text x="80" y="248" font-family="system-ui, -apple-system, sans-serif" font-size="64" font-weight="800" fill="white">Get Board Ready</text>
  
  <!-- Subheading -->
  <text x="80" y="318" font-family="system-ui, -apple-system, sans-serif" font-size="32" font-weight="400" fill="#94a3b8">IICA Independent Director Exam Prep</text>
  <text x="80" y="362" font-family="system-ui, -apple-system, sans-serif" font-size="32" font-weight="400" fill="#94a3b8">Powered by Gemini AI · 30-Day Programme</text>
  
  <!-- Divider -->
  <line x1="80" y1="400" x2="520" y2="400" stroke="#4F46E5" stroke-width="3"/>
  
  <!-- Stats row -->
  <rect x="80" y="430" width="180" height="90" rx="12" fill="white" fill-opacity="0.06"/>
  <text x="170" y="478" text-anchor="middle" font-family="system-ui" font-size="36" font-weight="800" fill="#FCD34D">65+</text>
  <text x="170" y="506" text-anchor="middle" font-family="system-ui" font-size="16" fill="#94a3b8">Real Questions</text>
  
  <rect x="280" y="430" width="180" height="90" rx="12" fill="white" fill-opacity="0.06"/>
  <text x="370" y="478" text-anchor="middle" font-family="system-ui" font-size="36" font-weight="800" fill="#FCD34D">30</text>
  <text x="370" y="506" text-anchor="middle" font-family="system-ui" font-size="16" fill="#94a3b8">Day Curriculum</text>
  
  <rect x="480" y="430" width="180" height="90" rx="12" fill="white" fill-opacity="0.06"/>
  <text x="570" y="478" text-anchor="middle" font-family="system-ui" font-size="36" font-weight="800" fill="#FCD34D">₹99</text>
  <text x="570" y="506" text-anchor="middle" font-family="system-ui" font-size="16" fill="#94a3b8">One Time Only</text>
  
  <!-- Right side visual -->
  <rect x="780" y="80" width="340" height="470" rx="20" fill="white" fill-opacity="0.04"/>
  <rect x="800" y="100" width="300" height="50" rx="10" fill="#4F46E5" fill-opacity="0.4"/>
  <text x="950" y="132" text-anchor="middle" font-family="system-ui" font-size="16" fill="white" font-weight="600">AI Boardroom Tutor</text>
  <rect x="800" y="168" width="300" height="50" rx="10" fill="white" fill-opacity="0.06"/>
  <text x="950" y="200" text-anchor="middle" font-family="system-ui" font-size="16" fill="#94a3b8">Daily Lessons · Section 149</text>
  <rect x="800" y="236" width="300" height="50" rx="10" fill="white" fill-opacity="0.06"/>
  <text x="950" y="268" text-anchor="middle" font-family="system-ui" font-size="16" fill="#94a3b8">Mock Exams · SEBI LODR</text>
  <rect x="800" y="304" width="300" height="50" rx="10" fill="white" fill-opacity="0.06"/>
  <text x="950" y="336" text-anchor="middle" font-family="system-ui" font-size="16" fill="#94a3b8">Case Studies · IBC / NCLT</text>
  <rect x="800" y="372" width="300" height="50" rx="10" fill="white" fill-opacity="0.06"/>
  <text x="950" y="404" text-anchor="middle" font-family="system-ui" font-size="16" fill="#94a3b8">25+ Flashcards · Companies Act</text>
  <rect x="800" y="440" width="300" height="80" rx="10" fill="#4F46E5"/>
  <text x="950" y="488" text-anchor="middle" font-family="system-ui" font-size="20" fill="white" font-weight="700">getboardready.online</text>
  
  <!-- URL footer -->
  <text x="80" y="590" font-family="system-ui" font-size="20" fill="#475569">getboardready.online</text>
</svg>
